# xmcd
#
# Track frame offsets: 
#        150
#        14575
#        26955
#        39872
#        54162
#        63347
#        68162
#        79455
#        97747
#        110612
#        122497
#
# Disc length: 1841 seconds
#
# Revision: 1
# Processed by: cddbd v1.5.2PL0 Copyright (c) Steve Scherf et al.
# Submitted via: ExactAudioCopy v0.99pb4
#
DISCID=89072f0b
DTITLE=Michael Thilo - Lieder aus der Zitadelle
DYEAR=1994
DGENRE=Folk
TTITLE0=Das war Herr Prunz von Prunzelschütz
TTITLE1=Seid gegrüßt in dieser Runde
TTITLE2=Dein Küssen ist so süß
TTITLE3=Der Wirt und die Magd
TTITLE4=Mein Liebchen hat etwas
TTITLE5=Ein Ritter lehnt in voller Rüstung
TTITLE6=Der Ritter in Taubertal oder die Erfindung des Dietrichs
TTITLE7=Der Pfarrer und die Köchin vom Moseltal
TTITLE8=Polly
TTITLE9=Collin und Juliette
TTITLE10=Oh, Weib, wie süß ist doch die Sünde
EXTD=
EXTT0=
EXTT1=
EXTT2=
EXTT3=
EXTT4=
EXTT5=
EXTT6=
EXTT7=
EXTT8=
EXTT9=
EXTT10=
PLAYORDER=
